<svg xmlns="http://www.w3.org/2000/svg" style="display:none;">
    <symbol id="logo">
        <path d="M37.6519 0.174355C40.3011 0.773739 42.623 2.58725 43.8541 4.98478C44.0723 5.43048 44.2593 5.8608 44.2593 5.96838C44.2593 6.0606 44.0255 6.50629 43.745 6.95198C43.2931 7.70505 43.184 7.78189 42.4204 7.95095C40.2699 8.42738 38.2752 10.0565 37.2779 12.162C36.7948 13.1456 36.8259 13.2685 37.6207 13.4683C38.6648 13.7296 38.7427 13.6989 39.0388 12.9458C39.3972 11.9776 40.6283 10.7173 41.6724 10.2102C42.1399 9.97963 42.5607 9.7952 42.5919 9.7952C42.6386 9.7952 42.7009 10.41 42.7321 11.163C42.7477 11.9161 42.8256 12.5769 42.8724 12.6384C42.9347 12.6845 43.3399 12.6384 43.7918 12.5308L44.6177 12.3157L44.6333 10.871C44.6489 9.64151 44.7112 9.27267 45.0541 8.55033C45.6151 7.38231 46.3942 6.56776 47.563 5.93764C48.498 5.44584 48.6227 5.41511 50.1031 5.41511C51.4745 5.41511 51.755 5.46121 52.5186 5.83006C54.7782 6.92124 56.1028 9.39561 55.6353 11.7009C55.1522 14.1446 53.3289 15.9273 51.007 16.2193L50.1343 16.3269V17.2491C50.1343 17.8177 50.2122 18.1865 50.3369 18.2173C50.6953 18.3402 52.4563 17.9099 53.4224 17.4488C54.6068 16.8956 56.1496 15.4509 56.7573 14.3136C57.9261 12.162 57.9417 9.38025 56.7885 7.35157C56.5859 6.98272 56.4456 6.64461 56.4768 6.5985C56.6482 6.44481 58.8923 7.07493 59.9675 7.5821C61.4168 8.2737 63.1154 9.88741 63.8634 11.286C64.7673 12.9612 65.2036 15.4355 64.8919 17.0032L64.7829 17.495L63.5206 17.4027C60.4662 17.1722 57.3027 18.3402 54.9964 20.5533C54.2016 21.3218 53.8744 21.5369 53.6562 21.4601C53.1731 21.2603 50.8823 21.3064 50.1655 21.5369C47.4539 22.3515 45.3501 24.5338 44.7268 27.1312C44.5398 27.9457 44.571 30.1588 44.7736 30.4969C44.8515 30.6045 45.132 30.5891 45.7242 30.4201L46.5657 30.1896L46.5501 28.8678C46.5501 27.8689 46.628 27.331 46.8929 26.6701C47.6409 24.749 49.5421 23.3966 51.7394 23.2121C52.8147 23.1199 52.877 23.1353 52.7835 23.4119C52.7212 23.5656 52.4718 24.2879 52.2225 25.0103C51.9732 25.7326 51.7238 26.7777 51.6615 27.3463L51.5524 28.3914H52.5809H53.6094V27.7152C53.6094 26.7469 54.2484 24.7183 54.8717 23.7039C55.9314 21.9673 57.817 20.4458 59.7338 19.7849C60.3883 19.5544 61.2298 19.416 62.3362 19.3699C64.2374 19.2777 65.3906 19.5083 67.0113 20.2767C68.3982 20.9376 70.3462 22.8587 71.0319 24.2572C72.3253 26.8853 72.3253 29.9283 71.0163 32.5256C70.4085 33.7551 68.8502 35.4303 67.6502 36.1373C66.6685 36.7213 65.9672 36.9825 66.1542 36.7059C66.3568 36.3678 65.8893 34.3699 65.3439 33.2787C64.3309 31.2961 62.4142 29.8207 60.1701 29.3135C59.3754 29.1291 56.9755 29.1752 56.7729 29.375C56.7261 29.4211 56.7729 29.8207 56.8976 30.2664L57.1157 31.0809L57.817 31.0656C58.9546 31.0195 60.4506 31.2961 61.2298 31.6957C62.1336 32.1414 63.3336 33.3863 63.7699 34.3391C64.0504 34.9231 64.1128 35.3688 64.1283 36.5368C64.1283 37.7971 64.066 38.1198 63.7232 38.8575C63.1466 40.0717 62.3207 40.9016 61.1363 41.4856C60.3104 41.8852 59.8896 41.9774 58.8143 42.0389C57.6923 42.1003 57.5053 42.1464 57.5677 42.3616C57.9728 43.7294 60.1545 51.8902 60.1545 51.9978C60.1545 52.0747 58.0975 50.1075 55.5885 47.6331L51.0226 43.13L49.8694 43.668C48.4357 44.3134 47.4072 44.5286 45.8488 44.5286C41.8283 44.5132 38.431 42.085 37.0753 38.2274C36.5766 36.7981 36.5766 34.124 37.0753 32.6947C37.4804 31.5266 38.0103 30.5738 38.7739 29.6516L39.3193 28.9754L38.6648 28.3453L38.0103 27.6998L37.3246 28.4529C36.9506 28.8525 36.4675 29.5441 36.2182 29.9898C35.9844 30.4201 35.7818 30.7889 35.7818 30.8043C35.7663 30.8197 35.4078 30.7275 34.9871 30.6045C34.2391 30.374 31.6054 30.374 31.3873 30.5891C31.3405 30.6352 31.3873 31.0502 31.4964 31.5266L31.6834 32.3719L32.8677 32.3565C33.5222 32.3412 34.2858 32.3873 34.5663 32.4488C35.0182 32.5563 35.0806 32.6178 34.9871 32.8945C34.7222 33.7244 34.7222 36.6598 34.9715 37.8125C35.2208 38.9344 36.0312 40.794 36.6234 41.5932L36.9194 42.0081L36.2649 42.4385C35.2676 43.0686 34.0988 43.3452 32.821 43.2684C31.2938 43.1608 30.1718 42.6229 29.0809 41.4395C28.5822 40.8862 28.1926 40.5788 28.1303 40.6864C28.0836 40.7786 27.6628 41.0399 27.2265 41.2704C26.494 41.6393 26.2603 41.6854 24.7798 41.6854C23.1903 41.6854 23.1124 41.67 22.1462 41.1321C21.1956 40.6249 20.7905 40.2254 21.1956 40.2254C21.554 40.2254 23.6111 38.7961 24.3903 38.0122C24.8266 37.5666 25.4499 36.7981 25.7928 36.3063C26.4473 35.3227 27.32 33.294 27.1485 33.1404C26.946 32.9559 25.5123 32.6793 25.4032 32.8022C25.3409 32.8637 25.185 33.2479 25.0292 33.6475C24.1409 36.045 21.741 38.2274 19.0918 39.042C17.5802 39.503 15.305 39.503 13.7934 39.0266C11.4247 38.3043 9.24303 36.4907 8.24568 34.4006C7.73142 33.3555 7.70026 33.3248 7.24834 33.4324C6.98341 33.4938 6.1419 33.5399 5.3783 33.5399C4.16279 33.5399 3.8667 33.4785 3.08752 33.1096C1.94992 32.5563 0.749985 31.2807 0.329231 30.1588C-0.107109 29.0062 -0.107109 27.3156 0.313644 26.1783C0.687653 25.2101 1.65383 24.0574 2.6356 23.458L3.30569 23.0277L4.03812 24.1343C5.4718 26.3013 7.98076 28.1301 10.4274 28.791C11.2066 29.0062 11.5806 29.2213 12.1883 29.8053C14.1519 31.6803 17.44 32.3412 19.9801 31.3729C20.7905 31.0502 22.1151 30.2357 22.4267 29.8668C22.6293 29.6363 22.5826 29.5287 22.0216 28.9754L21.3982 28.3607L20.5723 28.9139C19.4347 29.6824 18.2971 29.9898 16.9101 29.8822C16.318 29.8361 15.5076 29.667 15.1336 29.5133L14.4479 29.2213L15.679 28.9601C16.6452 28.7603 18.7178 27.9764 18.9828 27.7152C18.9983 27.6844 18.8113 27.3156 18.5308 26.8853L18.0477 26.1015L17.4712 26.3935C16.3024 26.9775 15.0869 27.2234 13.4038 27.2234C10.6923 27.2234 8.80669 26.4703 6.92108 24.6261C5.0978 22.8279 4.20954 20.7378 4.20954 18.1712C4.20954 13.5759 7.52884 9.82594 12.2039 9.18045C12.8273 9.08824 13.6843 9.0575 14.1207 9.11898L14.9154 9.21119V10.4561C14.8999 12.2388 15.4609 13.8372 16.5673 15.1282L17.0971 15.7737L17.7517 15.1128L18.4062 14.4519L17.8452 13.6528C17.0971 12.5462 16.7699 11.3782 16.8634 10.1026C17.066 7.32083 19.2633 5.19994 22.0683 5.06163C22.8007 5.01552 23.4864 5.09236 24.0786 5.26142C24.9668 5.50732 24.9668 5.50732 24.8578 5.99912C24.5305 7.45915 24.4838 7.84337 24.4682 9.11898C24.4682 10.7327 24.8266 12.3003 25.559 13.8833C26.2603 15.3894 26.4785 16.1732 26.5875 17.495C26.7745 19.7081 26.1668 21.7828 24.7643 23.6732L23.9695 24.749L24.624 25.3791L25.2629 26.0092L25.9486 25.2408C27.4446 23.5502 28.5199 20.8146 28.5199 18.6783V17.6179L29.1744 18.0636C30.7639 19.1394 32.7898 19.8771 34.6287 20.0462L35.7039 20.1384L35.6572 19.1548L35.6104 18.1712L34.5975 18.079C30.0315 17.6794 26.3538 13.6528 26.3382 9.0114C26.3382 7.90485 26.8057 6.07596 27.3979 4.92331C28.4576 2.86389 30.3432 1.2348 32.5716 0.481731C34.0053 -0.010067 36.2182 -0.148388 37.6519 0.174355Z" fill="#BADF20"/>
    </symbol>
</svg>